# xmcd
#
# Track frame offsets: 
#        150
#        4660
#        27807
#        46187
#        70577
#        90885
#        114547
#        135957
#        150025
#        168262
#        188584
#        217534
#        242077
#        261492
#        278260
#        299462
#
# Disc length: 4516 seconds
#
# Revision: 0
# Processed by: cddbd v1.5.2PL0 Copyright (c) Steve Scherf et al.
# Submitted via: ExactAudioCopy v0.95b3
#
DISCID=b711a210
DTITLE=Gregor Hilden - Guitar De Luxe (Remastered)
DYEAR=2006
DGENRE=Blues
TTITLE0=Intro
TTITLE1=Crazy 'Bout My Baby
TTITLE2=Slabo Days
TTITLE3=Impressions
TTITLE4=Trust Me
TTITLE5=Goodbye Pork Pie Hat
TTITLE6=Freeway Jam
TTITLE7=Who's Been Talkin'
TTITLE8=Rockin' The Night
TTITLE9=Radio Memphis
TTITLE10=Put It Where You Want It
TTITLE11=Winter Blues
TTITLE12=all Blues
TTITLE13=Grandma's Hands
TTITLE14=The Things Ain't What They Used To Be
TTITLE15=Golden Voice Blues (live)
EXTD=
EXTT0=
EXTT1=
EXTT2=
EXTT3=
EXTT4=
EXTT5=
EXTT6=
EXTT7=
EXTT8=
EXTT9=
EXTT10=
EXTT11=
EXTT12=
EXTT13=
EXTT14=
EXTT15=
PLAYORDER=
